<?xml version="1.0" standalone="no"?>
<!DOCTYPE svg PUBLIC "-//W3C//DTD SVG 20010904//EN"
 "http://www.w3.org/TR/2001/REC-SVG-20010904/DTD/svg10.dtd">
<svg version="1.0" xmlns="http://www.w3.org/2000/svg"
 width="128.000000pt" height="128.000000pt" viewBox="0 0 128.000000 128.000000"
 preserveAspectRatio="xMidYMid meet">
<metadata>
Created by potrace 1.11, written by Peter Selinger 2001-2013
</metadata>
<g transform="translate(0.000000,128.000000) scale(0.100000,-0.100000)"
fill="#000000" stroke="none">
<path d="M279 1267 c-36 -28 -39 -51 -39 -321 l0 -266 -61 0 c-104 0 -99 13
-99 -240 0 -252 -5 -240 98 -240 l60 0 3 -78 c6 -126 -31 -116 458 -120 229
-1 426 0 438 3 12 3 32 15 43 27 19 21 20 34 20 477 l0 454 -157 158 -158 159
-295 0 c-216 -1 -299 -4 -311 -13z"/>
</g>
</svg>
